# xmcd CD database file
#
# Track frame offsets:
#	150
#	19186
#	37170
#	55163
#	67817
#	89389
#	117078
#	136189
#	155753
#	174058
#	195015
#	215132
#	232744
#	253672
#	271685
#	290410
#	307412
#
# Disc length: 4333 seconds
#
# Revision: 0
# Processed by: cddbd v1.5.1PL2 Copyright (c) Steve Scherf et al.
# Submitted via: CDex 1.51
#
DISCID=e710eb11
DTITLE=Various Artist - Let's get loud
DYEAR=1900
DGENRE=Salsa
TTITLE0=Marc Anthony - I Need To Know
TTITLE1=Jennifer Lopez - Let's Get Loud
TTITLE2=Ricky Martin - Maria
TTITLE3=Bellini - Samba De Janeiro
TTITLE4=Gipsy Kings - Medley
TTITLE5=El Chato - Medley
TTITLE6=Miami Sound Machine - Conga
TTITLE7=Gloria Estefan - Oye (Pablo Flores 12" Mix)
TTITLE8=Ricky Martin - Linin' La Vida Loca (spanish)
TTITLE9=Dos Amigos - Mambo
TTITLE10=Ricky Martin - La Copa De La Vida (spanish)
TTITLE11=Jennifer Lopez - If You Had My Love (Pablo Flores Remix)
TTITLE12=Gloria estefan - Cuba Libre
TTITLE13=Miami Sound Machine - Dr. Beat
TTITLE14=Steve Amington - Feel So Real
TTITLE15=Kid Creole and The Coconuts - Annie I'm Not Your Daddy
TTITLE16=Spanish Energy - Loca Noche
EXTD=
EXTT0=
EXTT1=
EXTT2=
EXTT3=
EXTT4=
EXTT5=
EXTT6=
EXTT7=
EXTT8=
EXTT9=
EXTT10=
EXTT11=
EXTT12=
EXTT13=
EXTT14=
EXTT15=
EXTT16=
PLAYORDER=
